{"title":"There Be Dragons (2011) 1080p MKV x264 AC3+DTS MultiSubs","uid":6965936,"size":9975919722,"categoryP":"video","categoryS":"hd___movies","magnet":"?xt=urn:btih:4147151cd6e1ea871ce48fa37f1e5268d374d092&amp;dn=There+Be+Dragons+%282011%29+1080p+MKV+x264+AC3%2BDTS+MultiSubs&amp;tr=udp%3A%2F%2Ftracker.openbittorrent.com%3A80&amp;tr=udp%3A%2F%2Fopen.demonii.com%3A1337&amp;tr=udp%3A%2F%2Ftracker.coppersurfer.tk%3A6969&amp;tr=udp%3A%2F%2Fexodus.desync.com%3A6969","seeders":1,"leechers":1,"uploader":"NLUPPER002","files":-1,"time":1326922865,"description":"There Be Dragons (2011) 1080p MKV x264 AC3+DTS MultiSubs\n.\n[IMG]http://img851.imageshack.us/img851/9277/tbd2011.jpg[/IMG]\n.\nVerenigde Staten / ArgentiniÃƒâ„¢ / Spanje\nDrama\n120 minuten\n\ngeregisseerd door Roland JoffÃƒÅ¡\nmet Charlie Cox, Wes Bentley en Olga Kurylenko\n\nEen jonge journalist, die lang geleden door zijn vader afgewezen werd, moet een voormalig vriend van zijn vader onderzoeken die mogelijk heilig kan worden verklaard. De moeilijke relatie tussen vader en zoon wordt nog ingewikkelder door de verschrikkelijke Spaanse Burgeroorlog, die volop aan de gang is.\n. &lt;a href=&quot;\nhttp://www.moviemeter.nl/film/68061&quot; rel=&quot;nofollow&quot; target=&quot;_NEW&quot;&gt;\nhttp://www.moviemeter.nl/film/68061&lt;/a&gt;\n.\nPLOT\n.\nArising out of the horror of the Spanish Civil War, a candidate for canonization is investigated by a journalist who discovers his own estranged father had a deep, dark and devastating connection to the saint's life. \n. &lt;a href=&quot;\nhttp://www.imdb.com/title/tt1316616/&quot; rel=&quot;nofollow&quot; target=&quot;_NEW&quot;&gt;\nhttp://www.imdb.com/title/tt1316616/&lt;/a&gt;\n.\nINFO\n.\nFormat                           : Matroska\nFormat version                   : Version 2\nFile size                        : 9.13 GiB\nDuration                         : 2h 1mn\nOverall bit rate                 : 10.7 Mbps\nEncoded date                     : UTC 2012-01-18 20:13:11\nWriting application              : mkvmerge v5.2.0 ('I can't explain') built on Dec 18 2011 18:12:03\nWriting library                  : libebml v1.2.3 + libmatroska v1.3.0\n\nVideo\nID                               : 1\nFormat                           : AVC\nFormat/Info                      : Advanced Video Codec\nFormat profile                   : &lt;a class=&quot;__cf_email__&quot; href=&quot;/cdn-cgi/l/email-protection&quot; data-cfemail=&quot;db93b2bcb39b97eff5ea&quot;&gt;[email&amp;#160;protected]&lt;/a&gt;&lt;script cf-hash='f9e31' type=&quot;text/javascript&quot;&gt;\n/* &lt;![CDATA[ */!function(){try{var t=&quot;currentScript&quot;in document?document.currentScript:function(){for(var t=document.getElementsByTagName(&quot;script&quot;),e=t.length;e--;)if(t[e].getAttribute(&quot;cf-hash&quot;))return t[e]}();if(t&amp;&amp;t.previousSibling){var e,r,n,i,c=t.previousSibling,a=c.getAttribute(&quot;data-cfemail&quot;);if(a){for(e=&quot;&quot;,r=parseInt(a.substr(0,2),16),n=2;a.length-n;n+=2)i=parseInt(a.substr(n,2),16)^r,e+=String.fromCharCode(i);e=document.createTextNode(e),c.parentNode.replaceChild(e,c)}}}catch(u){}}();/* ]]&gt; */&lt;/script&gt;\nFormat settings, CABAC           : Yes\nFormat settings, ReFrames        : 5 frames\nCodec ID                         : V_MPEG4/ISO/AVC\nDuration                         : 2h 1mn\nBit rate                         : 8 778 Kbps\nWidth                            : 1 920 pixels\nHeight                           : 824 pixels\nDisplay aspect ratio             : 2.35:1\nFrame rate                       : 23.976 fps\nColor space                      : YUV\nChroma subsampling               : 4:2:0\nBit depth                        : 8 bits\nScan type                        : Progressive\nBits/(Pixel*Frame)               : 0.231\nStream size                      : 7.28 GiB (80%)\nWriting library                  : x264 core 120 r2120 0c7dab9\nEncoding settings                : cabac=1 / ref=5 / deblock=1:0:0 / analyse=0x3:0x133 / me=umh / subme=7 / psy=1 / psy_rd=1.00:0.00 / mixed_ref=1 / me_range=16 / chroma_me=1 / trellis=1 / 8x8dct=1 / cqm=0 / deadzone=21,11 / fast_pskip=0 / chroma_qp_offset=-2 / threads=12 / sliced_threads=0 / nr=0 / decimate=1 / interlaced=0 / bluray_compat=0 / constrained_intra=0 / bframes=3 / b_pyramid=2 / b_adapt=1 / b_bias=0 / direct=1 / weightb=1 / open_gop=0 / weightp=2 / keyint=250 / keyint_min=23 / scenecut=40 / intra_refresh=0 / rc_lookahead=40 / rc=2pass / mbtree=1 / bitrate=8778 / ratetol=1.0 / qcomp=0.60 / qpmin=0 / qpmax=69 / qpstep=4 / cplxblur=20.0 / qblur=0.5 / ip_ratio=1.40 / aq=1:1.00\nLanguage                         : English\nDefault                          : Yes\nForced                           : No\n\nAudio #1\nID                               : 2\nFormat                           : DTS\nFormat/Info                      : Digital Theater Systems\nCodec ID                         : A_DTS\nDuration                         : 2h 1mn\nBit rate mode                    : Constant\nBit rate                         : 1 510 Kbps\nChannel(s)                       : 6 channels\nChannel positions                : Front: L C R, Side: L R, LFE\nSampling rate                    : 48.0 KHz\nBit depth                        : 24 bits\nCompression mode                 : Lossy\nStream size                      : 1.28 GiB (14%)\nTitle                            : DTS\nLanguage                         : English\nDefault                          : Yes\nForced                           : No\n\nAudio #2\nID                               : 3\nFormat                           : AC-3\nFormat/Info                      : Audio Coding 3\nMode extension                   : CM (complete main)\nCodec ID                         : A_AC3\nDuration                         : 2h 1mn\nBit rate mode                    : Constant\nBit rate                         : 640 Kbps\nChannel(s)                       : 6 channels\nChannel positions                : Front: L C R, Side: L R, LFE\nSampling rate                    : 48.0 KHz\nBit depth                        : 16 bits\nCompression mode                 : Lossy\nStream size                      : 390 MiB (4%)\nTitle                            : AC3\nLanguage                         : English\nDefault                          : No\nForced                           : No\n\nText #1\nID                               : 4\nFormat                           : UTF-8\nCodec ID                         : S_TEXT/UTF8\nCodec ID/Info                    : UTF-8 Plain Text\nLanguage                         : Dutch\nDefault                          : Yes\nForced                           : No\n\nText #2\nID                               : 5\nFormat                           : UTF-8\nCodec ID                         : S_TEXT/UTF8\nCodec ID/Info                    : UTF-8 Plain Text\nLanguage                         : English\nDefault                          : No\nForced                           : No\n\nText #3\nID                               : 6\nFormat                           : UTF-8\nCodec ID                         : S_TEXT/UTF8\nCodec ID/Info                    : UTF-8 Plain Text\nLanguage                         : Romanian\nDefault                          : No\nForced                           : No\n\nText #4\nID                               : 7\nFormat                           : UTF-8\nCodec ID                         : S_TEXT/UTF8\nCodec ID/Info                    : UTF-8 Plain Text\nLanguage                         : Greek\nDefault                          : No\nForced                           : No\n.\nNL Vertaling SRT-TEAM\n.\nEnjoy\n","torrent":{"xt":"urn:btih:4147151cd6e1ea871ce48fa37f1e5268d374d092","amp;dn":"There+Be+Dragons+%282011%29+1080p+MKV+x264+AC3%2BDTS+MultiSubs","amp;tr":["udp%3A%2F%2Ftracker.openbittorrent.com%3A80","udp%3A%2F%2Fopen.demonii.com%3A1337","udp%3A%2F%2Ftracker.coppersurfer.tk%3A6969","udp%3A%2F%2Fexodus.desync.com%3A6969"],"infoHash":"4147151cd6e1ea871ce48fa37f1e5268d374d092","infoHashBuffer":{"type":"Buffer","data":[65,71,21,28,214,225,234,135,28,228,143,163,127,30,82,104,211,116,208,146]},"announce":[],"urlList":[]}}